<?xml version="1.0" encoding="utf-8"?>
<!-- Generator: Adobe Illustrator 16.0.0, SVG Export Plug-In . SVG Version: 6.00 Build 0)  -->
<!DOCTYPE svg PUBLIC "-//W3C//DTD SVG 1.1//EN" "http://www.w3.org/Graphics/SVG/1.1/DTD/svg11.dtd">
<svg version="1.1" id="Layer_1" xmlns="http://www.w3.org/2000/svg" xmlns:xlink="http://www.w3.org/1999/xlink" x="0px" y="0px"
	 width="1505.899px" height="503.855px" viewBox="0 0 1505.899 503.855" enable-background="new 0 0 1505.899 503.855"
	 xml:space="preserve">
<g>
	<path fill="#FFFFFF" d="M784.84,129.685c-148.042,30.838-282.083,41.188-395.492,41.188c-87.307,0-162.342-6.144-221.985-13.82
		C98.597,148.196,42.383,136.514,0,125.73v133.572c79.355,24.476,341.088,88.861,705.455,13.099
		c256.385-53.425,473.817-60.692,611.024-57.378c75.004,1.775,140.309,7.043,190.533,13.201V90.2
		c-39.125-5.144-101.324-11.097-182.611-12.664C1204.286,75.24,1013.219,82.445,784.84,129.685z"/>
	<path fill="#FFFFFF" d="M784.84,189.771c-148.042,30.838-282.083,41.188-395.492,41.188c-87.307,0-162.342-6.143-221.985-13.821
		C98.597,208.28,42.383,196.599,0,185.814v133.573c79.355,24.475,341.088,88.86,705.455,13.1
		c256.385-53.426,473.817-60.692,611.024-57.379c75.004,1.774,140.309,7.042,190.533,13.2V150.284
		c-39.125-5.143-101.324-11.097-182.611-12.663C1204.286,135.324,1013.219,142.53,784.84,189.771z"/>
	<path fill="#FFFFFF" d="M784.84,57.568C636.798,88.406,502.758,98.757,389.349,98.757c-87.307,0-162.342-6.144-221.986-13.82
		C98.597,76.08,42.383,64.397,0,53.613v133.574c79.355,24.476,341.088,88.859,705.455,13.099
		c256.385-53.425,473.817-60.692,611.024-57.38c75.004,1.777,140.309,7.046,190.533,13.201V18.083
		c-39.125-5.143-101.324-11.096-182.611-12.664C1204.286,3.122,1013.219,10.329,784.84,57.568z"/>
</g>
<g>
	<path fill="#FFFFFF" d="M784.84,261.699c-148.042,30.838-282.083,41.188-395.492,41.188c-87.307,0-162.342-6.144-221.985-13.82
		C98.597,280.21,42.383,268.527,0,257.744v133.572c79.355,24.477,341.088,88.861,705.455,13.1
		c256.385-53.426,473.817-60.692,611.024-57.379c75.004,1.775,140.309,7.043,190.533,13.201V222.214
		c-39.125-5.144-101.324-11.097-182.611-12.663C1204.286,207.254,1013.219,214.459,784.84,261.699z"/>
	<path fill="#FFFFFF" d="M784.84,321.785c-148.042,30.838-282.083,41.188-395.492,41.188c-87.307,0-162.342-6.143-221.985-13.821
		C98.597,340.294,42.383,328.612,0,317.828v133.574c79.355,24.475,341.088,88.859,705.455,13.1
		c256.385-53.426,473.817-60.693,611.024-57.379c75.004,1.774,140.309,7.041,190.533,13.199V282.298
		c-39.125-5.144-101.324-11.098-182.611-12.664C1204.286,267.337,1013.219,274.542,784.84,321.785z"/>
	<path fill="#FFFFFF" d="M784.84,189.582C636.798,220.42,502.758,230.77,389.349,230.77c-87.307,0-162.342-6.144-221.985-13.82
		C98.597,208.094,42.383,196.411,0,185.627v133.574c79.355,24.475,341.088,88.858,705.455,13.098
		c256.385-53.426,473.817-60.69,611.024-57.379c75.004,1.775,140.309,7.045,190.533,13.201V150.097
		c-39.125-5.143-101.324-11.096-182.611-12.664C1204.286,135.136,1013.219,142.342,784.84,189.582z"/>
</g>
<rect x="-0.557" y="185.732" fill="#FFFFFF" width="1507.012" height="317.205"/>
</svg>
