<?xml version="1.0" encoding="utf-8"?>
<!-- Generator: Adobe Illustrator 16.0.0, SVG Export Plug-In . SVG Version: 6.00 Build 0)  -->
<!DOCTYPE svg PUBLIC "-//W3C//DTD SVG 1.1//EN" "http://www.w3.org/Graphics/SVG/1.1/DTD/svg11.dtd">
<svg version="1.1" id="Layer_1" xmlns="http://www.w3.org/2000/svg" xmlns:xlink="http://www.w3.org/1999/xlink" x="0px" y="0px"
	 width="50px" height="50px" viewBox="0 0 50 50" enable-background="new 0 0 50 50" xml:space="preserve">
<path fill="#007071" d="M25,0C11.192,0,0,11.193,0,25c0,13.808,11.192,25,25,25c13.807,0,25-11.192,25-25C50,11.193,38.807,0,25,0z
	 M33.068,26H26v15h-6V26h-5v-6h5v-3.676c0-5.036,3.021-7.778,7.514-7.778c2.152,0,4.486,0.16,4.486,0.231V14h-1.824
	C27.732,14,26,15.203,26,16.906V20h7.826L33.068,26z"/>
</svg>
