<?xml version="1.0" encoding="utf-8"?>
<!-- Generator: Adobe Illustrator 16.0.0, SVG Export Plug-In . SVG Version: 6.00 Build 0)  -->
<!DOCTYPE svg PUBLIC "-//W3C//DTD SVG 1.1//EN" "http://www.w3.org/Graphics/SVG/1.1/DTD/svg11.dtd">
<svg version="1.1" id="Layer_1" xmlns="http://www.w3.org/2000/svg" xmlns:xlink="http://www.w3.org/1999/xlink" x="0px" y="0px"
	 width="50px" height="50px" viewBox="0 0 50 50" enable-background="new 0 0 50 50" xml:space="preserve">
<g>
	<path fill="#007071" d="M22,36.419c-1,0.57-1.013,0.853-1.38,0.853c-0.241,0-0.472-0.146-0.518-0.43
		C20.089,36.785,20,36.563,20,36.136V29h-2v7.682c0,0.709,0.126,1.189,0.225,1.494c0.185,0.508,0.85,0.747,1.436,0.747
		c0.668,0,1.34-0.407,2.34-1.235V39h2V29h-2V36.419z"/>
	<polygon fill="#007071" points="19,25 12,25 12,27 14,27 14,39 16,39 16,27 19,27 	"/>
	<path fill="#007071" d="M25.002,19.277c0.59,0,0.998-0.468,0.998-1.407v-4.264c0-0.938-0.408-1.407-0.998-1.407
		c-0.594,0-1.002,0.468-1.002,1.407v4.264C24,18.81,24.408,19.277,25.002,19.277z"/>
	<path fill="#007071" d="M25,0C11.193,0,0,11.193,0,25c0,13.808,11.193,25,25,25s25-11.192,25-25C50,11.193,38.807,0,25,0z M29,11h2
		v7.134c0,0.432-0.233,0.654-0.212,0.714c0.038,0.282-0.007,0.432,0.241,0.432c0.369,0,0.971-0.287,0.971-0.86V11h2v10h-2v-1.299
		c0,0.839-1.359,1.246-2.027,1.246c-0.592,0-0.813-0.241-0.998-0.753C28.871,19.888,29,19.402,29,18.688V11z M24.566,10.548
		c0.92,0,1.992,0.346,2.503,1.041C27.455,12.099,28,12.893,28,13.974v3.553c0,1.08-0.545,1.879-0.931,2.384
		c-0.511,0.689-1.403,1.037-2.324,1.037S23.094,20.6,22.59,19.91C22.195,19.405,22,18.606,22,17.526v-3.553
		c0-1.081,0.105-1.875,0.5-2.385C23.005,10.894,23.646,10.548,24.566,10.548z M17.326,7l1.447,5.343L20.167,7h2.063L20,15.296V21h-2
		v-5.704c0-0.975-0.727-2.507-1.381-4.403C16.189,9.63,15.609,8,15.178,7H17.326z M40,33.432c0,2.414-0.498,4.831-0.498,4.831
		s-0.394,2.056-1.293,2.961c-1.143,1.189-2.475,1.194-3.062,1.262c-4.204,0.305-10.537,0.313-10.537,0.313S16.787,42.73,14.381,42.5
		c-0.664-0.126-2.17-0.087-3.316-1.276c-0.898-0.905-0.979-2.961-0.979-2.961S10,35.846,10,33.432v-2.266
		c0-2.414,0.082-4.828,0.082-4.828s0.186-2.056,1.085-2.963c1.146-1.189,2.368-1.101,2.955-1.171C18.328,21.906,24.577,22,24.577,22
		h0.014c0,0,6.303-0.094,10.507,0.204c0.587,0.07,1.869,0.027,3.012,1.218c0.899,0.907,1.393,2.939,1.393,2.939S40,28.752,40,31.166
		V33.432z"/>
	<path fill="#007071" d="M30.455,29.76c-0.244-0.75-0.903-1.133-1.626-1.133c-0.671,0-0.829,0.367-1.829,1.089V25h-2v14h2v-1.188
		c1,0.753,1.117,1.111,1.767,1.111c0.723,0,1.509-0.381,1.751-1.127C30.64,37.37,31,36.702,31,35.775v-3.997
		C31,30.827,30.577,30.167,30.455,29.76z M29,35.916c0,0.907-0.418,1.355-0.941,1.355c-0.302,0-1.059-0.146-1.059-0.448v-6.118
		c0-0.296,0.757-0.44,1.059-0.44c0.523,0,0.941,0.462,0.941,1.372V35.916z"/>
	<path fill="#007071" d="M37,35.574V35h-1.799c0,1-0.024,1.289-0.041,1.387c-0.103,0.486-0.072,0.808-0.523,0.808
		c-0.625,0-0.637-0.388-0.637-1.319V34h3v-1.98c0-1.073-0.152-1.855-0.533-2.363c-0.51-0.687-1.144-1.029-2.059-1.029
		c-0.929,0-1.486,0.343-2.014,1.029C32.01,30.164,32,30.946,32,32.02v3.514c0,1.064,0,1.857,0.385,2.358
		c0.527,0.686,1.153,1.031,2.104,1.031c0.954,0,1.65-0.361,2.156-1.089c0.22-0.323,0.313-0.688,0.371-1.09
		C37.029,36.563,37,36.158,37,35.574z M34,31.658c0-0.932-0.105-1.394,0.502-1.394c0.604,0,0.498,0.462,0.498,1.394V33h-1V31.658z"
		/>
</g>
</svg>
